<svg width="75" height="26" viewBox="0 0 75 26" fill="none" xmlns="http://www.w3.org/2000/svg">
<g clip-path="url(#clip0_10_34)">
<path d="M13 16.25C11.205 16.25 9.75 14.795 9.75 13C9.75 11.2052 11.205 9.75 13 9.75C14.795 9.75 16.25 11.2052 16.25 13C16.25 14.795 14.795 16.25 13 16.25Z" fill="white"/>
<path d="M26 21.9375H4.875C4.4263 21.9375 4.0625 21.5737 4.0625 21.125V6.5H0V21.9375C0 24.1812 1.81878 26 4.0625 26H21.9375C24.1812 26 26 24.1812 26 21.9375Z" fill="white"/>
<path d="M21.9375 19.5H26V4.0625C26 1.81878 24.1812 0 21.9375 0H4.0625C1.81878 0 0 1.81878 0 4.0625H21.125C21.5737 4.0625 21.9375 4.4263 21.9375 4.875V19.5Z" fill="white"/>
<path d="M35.2942 17.6044V4.0625H31.6875V17.6044V21.125H35.2942H43.0625V17.6044H35.2942Z" fill="white"/>
<path d="M55.6067 17.6044V4.0625H52V17.6044V21.125H55.6067H63.375V17.6044H55.6067Z" fill="white"/>
<path d="M69.1657 4.0625H65.7093H60.125V7.58323H65.7093V21.125H69.1657V7.58323H74.75V4.0625H69.1657Z" fill="white"/>
<path d="M48.75 17.6044V4.0625H45.5V17.6044V21.125H48.75V17.6044Z" fill="white"/>
</g>
<defs>
<clipPath id="clip0_10_34">
<rect width="74.75" height="26" fill="white"/>
</clipPath>
</defs>
</svg>
